<?xml version="1.0" standalone="no"?><svg xmlns="http://www.w3.org/2000/svg" xmlns:xlink="http://www.w3.org/1999/xlink" style="isolation:isolate" viewBox="0 0 1100 550" width="1100" height="550" onclick="mainanimation.reset().play()"><g style="isolation:isolate" id="allseeing" filter="url(#JuTjT1vPWD2k20nAlQ5YhesWCUCW1gGX)">
    <path d=" M 511.739 300 Q 520.032 284.037 550 284 Q 580.007 284.105 588.284 299.939 Q 580 316 550 316 Q 520.008 316 511.739 300 Z " id="eye" data-ignore="true" fill="none" vector-effect="non-scaling-stroke" stroke-width="3" stroke="rgb(58,128,104)" stroke-linejoin="miter" stroke-linecap="square" stroke-miterlimit="3"></path>
    <mask id="mask">
        <rect x="500" y="250" width="100" height="100" fill="rgb(58,128,104)"></rect>
        <use xlink:href="#eye" id="lid" fill="rgb(58,128,104)"/>
    </mask>
<ellipse vector-effect="non-scaling-stroke" cx="550" cy="300" rx="5" ry="4.75" id="pupil" data-duration="150" fill="none" stroke-width="3" stroke="rgb(58,128,104)" stroke-linejoin="miter" stroke-linecap="butt" stroke-miterlimit="3"/><path d=" M 550.186 316 L 550.814 316 C 551.469 316 552 316.531 552 317.186 L 552 339.814 C 552 340.469 551.469 341 550.814 341 L 550.186 341 C 549.531 341 549 340.469 549 339.814 L 549 317.186 C 549 316.531 549.531 316 550.186 316 Z  M 537.919 315 L 539.081 315 C 539.588 315 540 315.412 540 315.919 L 540 329.081 C 540 329.588 539.588 330 539.081 330 L 537.919 330 C 537.412 330 537 329.588 537 329.081 L 537 315.919 C 537 315.412 537.412 315 537.919 315 Z  M 560.919 315 L 562.081 315 C 562.588 315 563 315.412 563 315.919 L 563 329.081 C 563 329.588 562.588 330 562.081 330 L 560.919 330 C 560.412 330 560 329.588 560 329.081 L 560 315.919 C 560 315.412 560.412 315 560.919 315 Z " fill-rule="evenodd" id="lashs" data-ignore="true" fill="rgb(58,128,104)"/><path d=" M 533 249 L 567 249 C 568.656 249 569.254 247.882 568.336 246.504 L 551.664 221.496 C 550.746 220.118 549.254 220.118 548.336 221.496 L 531.664 246.504 C 530.746 247.882 531.344 249 533 249 Z " id="pryidtop" data-async data-delay="0" data-duration="100" fill="none" vector-effect="non-scaling-stroke" stroke-width="3" stroke="rgb(58,128,104)" stroke-linejoin="miter" stroke-linecap="square" stroke-miterlimit="3"/><path d=" M 481.59 347.456 L 528.41 272.544 C 529.288 271.14 531.344 270 533 270 L 567 270 C 568.656 270 570.712 271.14 571.59 272.544 L 618.41 347.456 C 619.288 348.86 618.656 350 617 350 L 483 350 C 481.344 350 480.712 348.86 481.59 347.456 Z " id="prymid" data-async data-delay="0" data-duration="150" fill="none" vector-effect="non-scaling-stroke" stroke-width="3" stroke="rgb(58,128,104)" stroke-linejoin="miter" stroke-linecap="square" stroke-miterlimit="3"/></g><defs><filter id="JuTjT1vPWD2k20nAlQ5YhesWCUCW1gGX" x="-200%" y="-200%" width="400%" height="400%" filterUnits="objectBoundingBox" color-interpolation-filters="sRGB"><feGaussianBlur xmlns="http://www.w3.org/2000/svg" stdDeviation="0.42936090628390283"/></filter></defs><g style="isolation:isolate" id="lines" filter="url(#ozpCzj0y51ViwFCN6Qt04fZqvCqpCFXP)"><path d=" M 420 200 L 680 200 L 775 300 L 680 394 L 421 394 L 325 300 L 420 200 Z " id="smallhex" data-delay="0" data-duration="100" fill="none" vector-effect="non-scaling-stroke" stroke-width="3" stroke="rgb(194,111,78)" stroke-linejoin="miter" stroke-linecap="square" stroke-miterlimit="3"/><path d=" M 550 26 L 420 145 L 420 452 L 550 525 L 680 452 L 680 144 L 550 26 Z " id="bighex" data-async data-delay="0" data-duration="100" fill="none" vector-effect="non-scaling-stroke" stroke-width="3" stroke="rgb(194,111,78)" stroke-linejoin="miter" stroke-linecap="square" stroke-miterlimit="3"/></g><defs><filter id="ozpCzj0y51ViwFCN6Qt04fZqvCqpCFXP" x="-200%" y="-200%" width="400%" height="400%" filterUnits="objectBoundingBox" color-interpolation-filters="sRGB"><feGaussianBlur xmlns="http://www.w3.org/2000/svg" stdDeviation="0.42936090628390283"/></filter></defs><g style="isolation:isolate" id="Tris" filter="url(#Ix1TxORsYO4DV2HhbEV4ffYvmwGaPBpt)"><polygon points="550,449,390,144,710,144" id="toptri" data-delay="0" data-duration="100" fill="none" vector-effect="non-scaling-stroke" stroke-width="4" stroke="rgb(223,210,184)" stroke-linejoin="miter" stroke-linecap="square" stroke-miterlimit="3"/><polygon points="550,147,710,452,390,452" id="bottri" data-async data-delay="0" data-duration="100" fill="none" vector-effect="non-scaling-stroke" stroke-width="4" stroke="rgb(223,210,184)" stroke-linejoin="miter" stroke-linecap="square" stroke-miterlimit="3"/></g><defs><filter id="Ix1TxORsYO4DV2HhbEV4ffYvmwGaPBpt" x="-200%" y="-200%" width="400%" height="400%" filterUnits="objectBoundingBox" color-interpolation-filters="sRGB"><feGaussianBlur xmlns="http://www.w3.org/2000/svg" stdDeviation="0.42936090628390283"/></filter></defs><g style="isolation:isolate" id="elips" filter="url(#GGYrqN8HSAGIhj3hZKWSZ9L6NKL3Ygko)"><circle vector-effect="non-scaling-stroke" cx="550" cy="275" r="250" id="bigelip" data-delay="30" data-duration="150" fill="none" stroke-width="4" stroke="rgb(223,210,184)" stroke-linejoin="miter" stroke-linecap="square" stroke-miterlimit="3"/><circle vector-effect="non-scaling-stroke" cx="550" cy="299" r="225" id="smallelip" data-delay="30" data-duration="150" data-async fill="none" stroke-width="4" stroke="rgb(223,210,184)" stroke-linejoin="miter" stroke-linecap="square" stroke-miterlimit="3"/></g><defs><filter id="GGYrqN8HSAGIhj3hZKWSZ9L6NKL3Ygko" x="-200%" y="-200%" width="400%" height="400%" filterUnits="objectBoundingBox" color-interpolation-filters="sRGB"><feGaussianBlur xmlns="http://www.w3.org/2000/svg" stdDeviation="0.42936090628390283"/></filter></defs></svg>